<?xml version="1.0" standalone="no"?>
<!DOCTYPE svg PUBLIC "-//W3C//DTD SVG 20010904//EN"
 "http://www.w3.org/TR/2001/REC-SVG-20010904/DTD/svg10.dtd">
<svg version="1.0" xmlns="http://www.w3.org/2000/svg"
 width="260.000000pt" height="260.000000pt" viewBox="0 0 260.000000 260.000000"
 preserveAspectRatio="xMidYMid meet">
<metadata>
Created by potrace 1.11, written by Peter Selinger 2001-2013
</metadata>
<g transform="translate(0.000000,260.000000) scale(0.100000,-0.100000)"
fill="#000000" stroke="none">
<path d="M1165 2580 c-132 -17 -266 -58 -390 -119 -373 -184 -630 -523 -700
-927 -19 -111 -19 -336 0 -447 30 -175 93 -335 190 -484 76 -116 252 -292 367
-367 501 -325 1147 -258 1568 164 190 189 314 427 361 690 17 97 17 343 0 440
-32 182 -126 400 -233 545 -186 250 -477 434 -777 491 -96 19 -295 26 -386 14z
m412 -290 c43 -11 123 -43 178 -70 326 -159 541 -485 562 -850 23 -412 -195
-789 -562 -972 -148 -74 -273 -102 -450 -101 -105 1 -149 6 -226 26 -246 64
-454 211 -592 419 -68 102 -111 200 -144 327 -30 120 -34 320 -8 446 37 182
129 355 259 492 138 146 299 242 481 288 144 37 356 35 502 -5z"/>
<path d="M840 1320 l0 -661 138 3 137 3 3 278 2 277 180 0 180 0 2 -277 3
-278 140 0 140 0 3 658 2 657 -145 0 -145 0 0 -255 0 -255 -180 0 -180 0 0
255 0 255 -140 0 -140 0 0 -660z"/>
</g>
</svg>
